# xmcd CD database file
#
# Track frame offsets:
#	150
#	21483
#	46873
#	67890
#	89672
#	115872
#	141060
#	158649
#	170646
#	175658
#	200853
#	219800
#	231525
#	254358
#	281638
#	301882
#
# Disc length: 4272 seconds
#
# Revision: 0
# Processed by: cddbd v1.5.2PL0 Copyright (c) Steve Scherf et al.
# Submitted via: CDex 1.70beta2
#
DISCID=e510ae10
DTITLE=Triosence - When You Come Home
DYEAR=2008
DGENRE=Jazz
TTITLE0=When You Come Home
TTITLE1=Three For Fun
TTITLE2=Heart In The Head
TTITLE3=Distance Means Nothing
TTITLE4=A Far Off Place
TTITLE5=Little Romance
TTITLE6=Something New
TTITLE7=Long Fall I
TTITLE8=Long Fall II
TTITLE9=Once I Knew
TTITLE10=What Really Matters
TTITLE11=You Alone
TTITLE12=Sad Truth
TTITLE13=That's How It Is
TTITLE14=Sometime Ago
TTITLE15=Lost Or Found
EXTD=YEAR: 2008
EXTT0=
EXTT1=
EXTT2=
EXTT3=
EXTT4=
EXTT5=
EXTT6=
EXTT7=
EXTT8=
EXTT9=
EXTT10=
EXTT11=
EXTT12=
EXTT13=
EXTT14=
EXTT15=
PLAYORDER=
